<mxfile modified="2020-10-15T07:32:56.316Z" host="app.diagrams.net" agent="5.0 (Windows NT 10.0; Win64; x64) AppleWebKit/537.36 (KHTML, like Gecko) Chrome/86.0.4240.75 Safari/537.36" etag="BFf3foxD3m7HiVSWapKy" version="13.7.9" type="github" pages="3">
  <diagram id="vBNmWXdyfwC3EVy-dLni" name="Page-2">
    <mxGraphModel dx="1038" dy="579" grid="1" gridSize="10" guides="1" tooltips="1" connect="1" arrows="1" fold="1" page="1" pageScale="1" pageWidth="1169" pageHeight="827" math="0" shadow="0">
      <root>
        <mxCell id="lJY72PMlaMHH1vnRFGfo-0" />
        <mxCell id="lJY72PMlaMHH1vnRFGfo-1" parent="lJY72PMlaMHH1vnRFGfo-0" />
        <mxCell id="lJY72PMlaMHH1vnRFGfo-2" value="Architecting on AWS" style="text;html=1;resizable=0;points=[];autosize=1;align=left;verticalAlign=top;spacingTop=-4;fontSize=30;fontStyle=1" parent="lJY72PMlaMHH1vnRFGfo-1" vertex="1">
          <mxGeometry x="56.5" y="64.5" width="310" height="40" as="geometry" />
        </mxCell>
        <mxCell id="lJY72PMlaMHH1vnRFGfo-3" value="Thomson Reuters Day 3&lt;br&gt;" style="text;html=1;resizable=0;points=[];autosize=1;align=left;verticalAlign=top;spacingTop=-4;fontSize=16;" parent="lJY72PMlaMHH1vnRFGfo-1" vertex="1">
          <mxGeometry x="56.5" y="114.5" width="190" height="20" as="geometry" />
        </mxCell>
        <mxCell id="lJY72PMlaMHH1vnRFGfo-4" value="" style="line;strokeWidth=2;html=1;fontSize=14;" parent="lJY72PMlaMHH1vnRFGfo-1" vertex="1">
          <mxGeometry x="52.5" y="139.5" width="1060" height="10" as="geometry" />
        </mxCell>
      </root>
    </mxGraphModel>
  </diagram>
  <diagram name="Copy of Page-2" id="HXY73dLuI6mGSODRZS5d">
    <mxGraphModel dx="1038" dy="579" grid="1" gridSize="10" guides="1" tooltips="1" connect="1" arrows="1" fold="1" page="1" pageScale="1" pageWidth="1169" pageHeight="827" math="0" shadow="0">
      <root>
        <mxCell id="06PIwtBfIA9uAto3cpbc-0" />
        <mxCell id="06PIwtBfIA9uAto3cpbc-1" parent="06PIwtBfIA9uAto3cpbc-0" />
        <mxCell id="06PIwtBfIA9uAto3cpbc-2" value="Architecting on AWS" style="text;html=1;resizable=0;points=[];autosize=1;align=left;verticalAlign=top;spacingTop=-4;fontSize=30;fontStyle=1" vertex="1" parent="06PIwtBfIA9uAto3cpbc-1">
          <mxGeometry x="56.5" y="64.5" width="310" height="40" as="geometry" />
        </mxCell>
        <mxCell id="06PIwtBfIA9uAto3cpbc-3" value="Thomson Reuters Day 3&lt;br&gt;" style="text;html=1;resizable=0;points=[];autosize=1;align=left;verticalAlign=top;spacingTop=-4;fontSize=16;" vertex="1" parent="06PIwtBfIA9uAto3cpbc-1">
          <mxGeometry x="56.5" y="114.5" width="190" height="20" as="geometry" />
        </mxCell>
        <mxCell id="06PIwtBfIA9uAto3cpbc-4" value="" style="line;strokeWidth=2;html=1;fontSize=14;" vertex="1" parent="06PIwtBfIA9uAto3cpbc-1">
          <mxGeometry x="52.5" y="139.5" width="1060" height="10" as="geometry" />
        </mxCell>
      </root>
    </mxGraphModel>
  </diagram>
  <diagram name="Copy of Copy of Page-2" id="F0VQvxsM79ttGJ-tETby">
    <mxGraphModel dx="1038" dy="579" grid="1" gridSize="10" guides="1" tooltips="1" connect="1" arrows="1" fold="1" page="1" pageScale="1" pageWidth="1169" pageHeight="827" math="0" shadow="0">
      <root>
        <mxCell id="9WfVf9NrPDkHgHv_12CJ-0" />
        <mxCell id="9WfVf9NrPDkHgHv_12CJ-1" parent="9WfVf9NrPDkHgHv_12CJ-0" />
        <mxCell id="9WfVf9NrPDkHgHv_12CJ-2" value="Architecting on AWS" style="text;html=1;resizable=0;points=[];autosize=1;align=left;verticalAlign=top;spacingTop=-4;fontSize=30;fontStyle=1" vertex="1" parent="9WfVf9NrPDkHgHv_12CJ-1">
          <mxGeometry x="56.5" y="64.5" width="310" height="40" as="geometry" />
        </mxCell>
        <mxCell id="9WfVf9NrPDkHgHv_12CJ-3" value="Thomson Reuters Day 3&lt;br&gt;" style="text;html=1;resizable=0;points=[];autosize=1;align=left;verticalAlign=top;spacingTop=-4;fontSize=16;" vertex="1" parent="9WfVf9NrPDkHgHv_12CJ-1">
          <mxGeometry x="56.5" y="114.5" width="190" height="20" as="geometry" />
        </mxCell>
        <mxCell id="9WfVf9NrPDkHgHv_12CJ-4" value="" style="line;strokeWidth=2;html=1;fontSize=14;" vertex="1" parent="9WfVf9NrPDkHgHv_12CJ-1">
          <mxGeometry x="52.5" y="139.5" width="1060" height="10" as="geometry" />
        </mxCell>
      </root>
    </mxGraphModel>
  </diagram>
</mxfile>
